<?xml version="1.0" encoding="utf-8"?>
<!-- Generator: Adobe Illustrator 22.0.1, SVG Export Plug-In . SVG Version: 6.00 Build 0)  -->
<svg version="1.1" id="Layer_1" xmlns="http://www.w3.org/2000/svg" xmlns:xlink="http://www.w3.org/1999/xlink" x="0px" y="0px"
	 viewBox="0 0 53.8 53.8" style="enable-background:new 0 0 53.8 53.8;" xml:space="preserve">
<style type="text/css">
	.st0{fill:#A6D1DA;}
	.st1{fill:#FFFFFF;}
</style>
<g>
	<path class="st0" d="M53.8,26.9c0,14.9-12.1,26.9-26.9,26.9C12.1,53.8,0,41.8,0,26.9C0,12.1,12.1,0,26.9,0
		C41.8,0,53.8,12.1,53.8,26.9z"/>
	<g>
		<path class="st1" d="M22.4,43.8h6.7c0,0,0-9.3,0-16.8h5l0.6-6.7h-5.3v-2.7c0-1.3,0.9-1.6,1.5-1.6c0.6,0,3.8,0,3.8,0v-5.8l-5.2,0
			c-5.8,0-7.1,4.3-7.1,7.1v3h-3.3v6.7h3.4C22.4,34.6,22.4,43.8,22.4,43.8z"/>
	</g>
</g>
</svg>
