<?xml version="1.0" encoding="utf-8"?>
<!-- Generator: Adobe Illustrator 22.0.1, SVG Export Plug-In . SVG Version: 6.00 Build 0)  -->
<svg version="1.1" id="Layer_1" xmlns="http://www.w3.org/2000/svg" xmlns:xlink="http://www.w3.org/1999/xlink" x="0px" y="0px"
	 viewBox="0 0 54 54" style="enable-background:new 0 0 54 54;" xml:space="preserve">
<style type="text/css">
	.st0{fill:#A6D1DA;}
	.st1{fill:#FFFFFF;}
</style>
<g>
	<path class="st0" d="M54,27c0,14.9-12.1,27-27,27C12.1,54,0,41.9,0,27C0,12.1,12.1,0,27,0C41.9,0,54,12.1,54,27z"/>
	<path id="path9-5_20_" class="st1" d="M15,26.7c-0.1,0,0.6,1.4,0.6,1.4c1.4,2.5,4,4.1,8.5,4.5c-0.6,0.5-1.4,1.4-1.5,2.5
		c-0.8,0.5-2.4,0.7-3.7,0.3c-1.8-0.6-2.4-4-5.1-3.5c-0.6,0.1-0.5,0.5,0,0.8c0.8,0.5,1.6,1.2,2.1,2.6c0.4,1.1,1.4,3,4.4,3
		c1.2,0,2-0.1,2-0.1s0,2.7,0,3.8c0,1.2-1.6,1.6-1.6,2.1c0,0.2,0.5,0.3,1,0.3c0.9,0,2.7-0.7,2.7-2c0-1,0-4.4,0-5
		c0-1.3,0.7-1.7,0.7-1.7s0.1,6.9-0.2,7.8c-0.3,1.1-0.8,0.9-0.8,1.4c0,0.7,2.2,0.2,2.9-1.4c0.6-1.2,0.3-8,0.3-8l0.6,0
		c0,0,0,3.1,0,4.5c0,1.5-0.1,3.3,0.8,4.2c0.6,0.6,2.4,1.6,2.4,0.7c0-0.5-1-1-1-2.4v-6.7c0.8,0,0.7,2.2,0.7,2.2l0.1,4.1
		c0,0-0.2,1.5,1.6,2.1c0.6,0.2,2,0.3,2-0.1c0.1-0.4-1.6-0.9-1.6-2.1c0-0.7,0-1.1,0-4.2c0-3-0.4-4.2-1.8-5.1c4.4-0.5,7.1-1.5,8.5-4.5
		c0.1,0,0.5-1.4,0.5-1.4c0.3-1.1,0.5-2.4,0.5-3.9c0-4.2-2-5.7-2.4-6.4c0.6-3.2-0.1-4.6-0.4-5.1c-1.1-0.4-3.9,1-5.5,2.1
		c-2.5-0.7-7.8-0.7-9.8,0.2c-3.7-2.6-5.6-2.2-5.6-2.2s-1.3,2.2-0.3,5.5c-1.2,1.5-2.1,2.6-2.1,5.5C14.4,24,14.6,25.4,15,26.7L15,26.7
		z"/>
</g>
</svg>
