<?xml version="1.0" encoding="utf-8"?>
<!-- Generator: Adobe Illustrator 22.0.1, SVG Export Plug-In . SVG Version: 6.00 Build 0)  -->
<svg version="1.1" id="Layer_1" xmlns="http://www.w3.org/2000/svg" xmlns:xlink="http://www.w3.org/1999/xlink" x="0px" y="0px"
	 viewBox="0 0 53.9 53.9" style="enable-background:new 0 0 53.9 53.9;" xml:space="preserve">
<style type="text/css">
	.st0{fill:#A6D1DA;}
	.st1{fill:#FFFFFF;}
</style>
<g>
	<path class="st0" d="M53.9,26.9c0,14.9-12.1,26.9-26.9,26.9C12.1,53.9,0,41.8,0,26.9C0,12.1,12.1,0,26.9,0
		C41.8,0,53.9,12.1,53.9,26.9z"/>
	<g>
		<path class="st1" d="M37.3,10.1H16.6c-3.6,0-6.5,2.9-6.5,6.5v6.9v13.8c0,3.6,2.9,6.5,6.5,6.5h20.7c3.6,0,6.5-2.9,6.5-6.5V23.5
			v-6.9C43.8,13,40.9,10.1,37.3,10.1z M39.1,14l0.7,0v0.7v5l-5.7,0l0-5.7L39.1,14z M22.1,23.5C23.2,22,25,21,26.9,21s3.7,1,4.8,2.5
			c0.7,1,1.1,2.2,1.1,3.5c0,3.3-2.7,5.9-5.9,5.9c-3.3,0-5.9-2.7-5.9-5.9C21,25.7,21.4,24.5,22.1,23.5z M40.5,37.3
			c0,1.8-1.4,3.2-3.2,3.2H16.6c-1.8,0-3.2-1.4-3.2-3.2V23.5h5c-0.4,1.1-0.7,2.2-0.7,3.5c0,5.1,4.1,9.2,9.2,9.2
			c5.1,0,9.2-4.1,9.2-9.2c0-1.2-0.2-2.4-0.7-3.5h5V37.3z"/>
	</g>
</g>
</svg>
