<?xml version="1.0" encoding="utf-8"?>
<!-- Generator: Adobe Illustrator 22.0.1, SVG Export Plug-In . SVG Version: 6.00 Build 0)  -->
<svg version="1.1" id="Layer_1" xmlns="http://www.w3.org/2000/svg" xmlns:xlink="http://www.w3.org/1999/xlink" x="0px" y="0px"
	 viewBox="0 0 158 158" style="enable-background:new 0 0 158 158;" xml:space="preserve">
<style type="text/css">
	.st0{fill:#39898D;}
	.st1{fill:#FFFFFF;}
	.st2{fill:none;stroke:#FFFFFF;stroke-width:5.7794;stroke-miterlimit:10;}
</style>
<g>
	<circle id="circle_9_" class="st0" cx="79" cy="79" r="79"/>
	<g id="ob_connection_15_">
		<path class="st1" d="M103.1,77.9c0.3-4.2-1-8.5-2.9-12.2c-2-3.7-4.8-7-8.2-9.4c-1.7-1.2-3.5-2.1-5.4-2.7c-1.9-0.6-3.8-0.8-5.6-0.7
			c-3.7,0.3-6.8,1.9-9.6,4.3l-0.5,0.4l-0.4,0.4c-0.2,0.3-0.6,0.5-0.7,0.8c-0.2,0.3-0.5,0.6-0.7,0.9c-0.2,0.3-0.4,0.7-0.6,1
			c-0.7,1.3-1.1,2.9-1.4,4.5c-0.5,3.3,0,7,1.1,10.4c1.2,3.4,3,6.6,5.8,9.2c1.4,1.3,3,2.4,4.8,3.4c1.8,1,3.7,1.7,5.6,2.4
			c4,1.3,8.2,1.8,12.5,1.9c1.1,0,2.1,0,3.2,0c1,0,2.1-0.2,3.1-0.4c2-0.4,4-1.2,5.9-2.2c1.8-1,3.6-2.2,5.1-3.5c1.6-1.3,3-2.7,4-4.2
			c1.1-1.4,1.9-3,2.4-4.5c0.6-1.6,0.7-3.2,0.5-4.6c-0.2-1.4-0.9-2.6-1.8-3.1c-0.9-0.6-2.6-0.5-4.3,0.4c-3.4,1.7-6.1,5.2-7.4,9.1
			c-1.3,4-1.6,8.3-1.3,12.6c0.1,2.1,0.5,4.3,1,6.3c0.5,2.1,1.1,4.2,2.2,6l-0.8,0.4c-1-2-1.6-4.1-2-6.2c-0.5-2.1-0.9-4.3-1.1-6.4
			c-0.2-2.2-0.4-4.3-0.3-6.5c0.1-2.2,0.3-4.4,0.8-6.6c0.5-2.2,1.3-4.3,2.4-6.3c1.1-2,2.6-3.9,4.5-5.5c1-0.8,2.1-1.5,3.4-1.9
			c1.3-0.4,2.9-0.6,4.5-0.2c1.6,0.4,3,1.4,4,2.6c1,1.2,1.7,2.5,2.1,3.9c0.8,2.8,0.5,5.6-0.3,8.1c-0.9,2.5-2.4,4.7-4.2,6.4
			c-1.9,1.8-4,2.9-6.1,3.8c-2.1,0.9-4.3,1.6-6.4,2.3c-2.1,0.6-4.3,1.1-6.5,1.5c-1.1,0.2-2.2,0.3-3.3,0.5L97,94.4
			c-4.4,0.2-8.8,0.2-13.2-0.4c-2.2-0.3-4.5-0.8-6.7-1.4c-2.2-0.7-4.4-1.6-6.5-2.8c-2.1-1.2-4.1-2.8-5.8-4.7c-1.7-1.9-3.1-4-4.2-6.2
			c-1.1-2.3-1.8-4.7-2.3-7.2c-0.5-2.5-0.5-5.1-0.2-7.7c0.4-2.6,1.2-5.3,2.7-7.7c0.4-0.6,0.8-1.2,1.2-1.7c0.4-0.6,0.9-1.1,1.4-1.6
			c0.5-0.5,1.1-0.9,1.6-1.4l0.8-0.6l0.8-0.5c4.2-2.7,9.7-4,14.7-3.1c2.5,0.4,4.8,1.3,6.9,2.6c2.1,1.2,3.9,2.7,5.5,4.3
			c3.2,3.2,5.7,7,7.5,11c1.8,4,2.9,8.3,2.8,12.7L103.1,77.9z"/>
	</g>
	<g id="o_15_">
		<path class="st1" d="M54.7,43.9c0,2.3-0.3,3.6-0.7,4.6c-0.4,1-0.8,1.6-1.4,2c-1.2,0.7-2.5,1.4-3.6,2.2c-2.3,1.6-4.4,3.6-6.2,5.7
			c-3.7,4.3-6.1,9.7-7.1,15.3c-0.3,1.4-0.4,2.9-0.5,4.3l0,2.2c0,0.4,0,0.7,0,1.1l0.1,1.1c0.2,2.9,0.9,5.8,1.9,8.6L38,93
			c0.2,0.7,0.7,1.3,1,2c0.6,1.4,1.5,2.6,2.3,3.8c0.4,0.6,0.9,1.2,1.4,1.8c0.2,0.3,0.5,0.6,0.7,0.9l0.8,0.8c0.5,0.5,1,1.1,1.6,1.6
			l1.7,1.5c2.4,1.9,5,3.6,7.9,4.7l1.1,0.5c0.4,0.1,0.7,0.2,1.1,0.4l2.2,0.7l2.3,0.5l1.2,0.2l1.2,0.1l2.4,0.2l2.4,0l1.2,0l1.2-0.1
			c0.8-0.1,1.6-0.1,2.4-0.3c1.6-0.4,3.2-0.6,4.7-1.1c0.8-0.3,1.6-0.5,2.3-0.8l2.2-1c2.9-1.4,5.7-3.1,8.1-5.3l0.9-0.8l0.9-0.9
			c0.6-0.6,1.2-1.2,1.7-1.8c1-1.3,2.1-2.6,2.9-4c3.6-5.5,5.3-12.2,5.3-18.8h0.9c-0.2,3.4-0.5,6.7-1.5,10c-0.1,0.4-0.2,0.8-0.3,1.2
			l-0.4,1.2c-0.3,0.8-0.5,1.6-0.9,2.4c-0.7,1.5-1.4,3.1-2.3,4.5c-0.8,1.5-1.8,2.8-2.8,4.2c-0.5,0.7-1.1,1.3-1.6,1.9l-0.8,1l-0.9,0.9
			c-2.4,2.4-5.2,4.4-8.1,6.2l-2.3,1.2c-0.8,0.4-1.6,0.7-2.4,1c-1.6,0.7-3.3,1.1-4.9,1.6l-2.5,0.5l-1.3,0.3l-1.3,0.1l-2.6,0.3l-2.6,0
			l-1.3,0l-1.3-0.1l-2.6-0.3l-2.6-0.5c-0.4-0.1-0.9-0.2-1.3-0.3l-1.3-0.4c-3.4-0.9-6.7-2.5-9.8-4.4l-2.3-1.5
			c-0.7-0.5-1.4-1.1-2.1-1.7l-1.1-0.9c-0.3-0.3-0.6-0.6-1-1c-0.6-0.6-1.3-1.3-1.9-1.9c-2.4-2.7-4.5-5.8-6.2-9.1
			c-0.4-0.8-0.7-1.7-1.1-2.5c-0.4-0.9-0.7-1.7-1-2.6l-0.8-2.7c-0.2-0.9-0.4-1.8-0.5-2.8l-0.3-1.4c-0.1-0.5-0.1-0.9-0.1-1.4l-0.2-2.8
			c0-1.9,0-3.8,0.2-5.7c0.8-7.5,3.7-14.9,8.5-20.9c2.4-3,5.2-5.7,8.3-7.9c1.5-1.1,3.2-2.1,4.9-3c0.9-0.4,1.9-0.6,3-0.2
			c1.2,0.4,2.5,1.1,3.9,2.7L54.7,43.9z"/>
	</g>
	<g id="b_15_">
		<path class="st1" d="M120.2,101.1c0-1.1-0.3-2.1-0.9-3.2c-0.6-1-1.7-2-3.2-2.5c-1.5-0.4-3.4-0.2-4.8,0.8c-1.5,1.1-2.4,2.9-2.4,4.8
			c0,1.9,1,3.8,2.4,4.8c1.5,1.1,3.4,1.3,4.8,0.8c1.5-0.4,2.6-1.5,3.2-2.5C119.9,103.2,120.1,102.1,120.2,101.1z M127.4,101.1
			c0,3-1.4,5.9-3.6,7.7c-2.2,1.8-5.2,2.5-7.7,2c-2.6-0.4-4.7-1.9-6.1-3.7c-1.4-1.8-2.1-3.9-2.1-6.1c0-2.1,0.7-4.3,2.1-6.1
			c1.4-1.8,3.5-3.2,6.1-3.7c2.5-0.5,5.5,0.2,7.7,2C126,95.1,127.4,98.1,127.4,101.1z"/>
	</g>
	<circle id="dot_8_" class="st2" cx="131.9" cy="107.3" r="1.3"/>
</g>
</svg>
